<mxfile host="app.diagrams.net" agent="Mozilla/5.0 (Macintosh; Intel Mac OS X 10_15_7) AppleWebKit/537.36 (KHTML, like Gecko) Chrome/128.0.0.0 Safari/537.36" version="24.8.3">
  <diagram name="Page-1" id="mTNx-MTujBmtuW2WUOnl">
    <mxGraphModel dx="1234" dy="810" grid="1" gridSize="10" guides="1" tooltips="1" connect="1" arrows="1" fold="1" page="1" pageScale="1" pageWidth="827" pageHeight="1169" math="0" shadow="0">
      <root>
        <mxCell id="0" />
        <mxCell id="1" parent="0" />
        <mxCell id="gnWVeeApLT5yzpqDKX4z-3" style="edgeStyle=orthogonalEdgeStyle;rounded=0;orthogonalLoop=1;jettySize=auto;html=1;exitX=0.5;exitY=1;exitDx=0;exitDy=0;" edge="1" parent="1" source="gnWVeeApLT5yzpqDKX4z-2">
          <mxGeometry relative="1" as="geometry">
            <mxPoint x="395" y="160" as="targetPoint" />
          </mxGeometry>
        </mxCell>
        <mxCell id="gnWVeeApLT5yzpqDKX4z-2" value="Start" style="ellipse;whiteSpace=wrap;html=1;fillColor=#dae8fc;strokeColor=#6c8ebf;" vertex="1" parent="1">
          <mxGeometry x="310" y="40" width="170" height="80" as="geometry" />
        </mxCell>
        <mxCell id="gnWVeeApLT5yzpqDKX4z-5" style="edgeStyle=orthogonalEdgeStyle;rounded=0;orthogonalLoop=1;jettySize=auto;html=1;exitX=0.5;exitY=1;exitDx=0;exitDy=0;" edge="1" parent="1" source="gnWVeeApLT5yzpqDKX4z-4">
          <mxGeometry relative="1" as="geometry">
            <mxPoint x="395" y="260" as="targetPoint" />
          </mxGeometry>
        </mxCell>
        <mxCell id="gnWVeeApLT5yzpqDKX4z-4" value="Find the greatest number among x,&amp;nbsp;&lt;div&gt;y and z&lt;/div&gt;" style="rounded=0;whiteSpace=wrap;html=1;fillColor=#d5e8d4;strokeColor=#82b366;" vertex="1" parent="1">
          <mxGeometry x="335" y="160" width="120" height="60" as="geometry" />
        </mxCell>
        <mxCell id="gnWVeeApLT5yzpqDKX4z-21" style="edgeStyle=orthogonalEdgeStyle;rounded=0;orthogonalLoop=1;jettySize=auto;html=1;exitX=0.5;exitY=1;exitDx=0;exitDy=0;" edge="1" parent="1" source="gnWVeeApLT5yzpqDKX4z-8">
          <mxGeometry relative="1" as="geometry">
            <mxPoint x="395" y="370" as="targetPoint" />
          </mxGeometry>
        </mxCell>
        <mxCell id="gnWVeeApLT5yzpqDKX4z-8" value="Is y greater than&amp;nbsp;&lt;div&gt;z?&lt;/div&gt;" style="rhombus;whiteSpace=wrap;html=1;fillColor=#fff2cc;strokeColor=#d6b656;" vertex="1" parent="1">
          <mxGeometry x="315" y="260" width="160" height="80" as="geometry" />
        </mxCell>
        <mxCell id="gnWVeeApLT5yzpqDKX4z-22" value="Yes" style="text;html=1;align=center;verticalAlign=middle;resizable=0;points=[];autosize=1;strokeColor=none;fillColor=none;" vertex="1" parent="1">
          <mxGeometry x="390" y="338" width="40" height="30" as="geometry" />
        </mxCell>
        <mxCell id="gnWVeeApLT5yzpqDKX4z-25" style="edgeStyle=orthogonalEdgeStyle;rounded=0;orthogonalLoop=1;jettySize=auto;html=1;exitX=0.5;exitY=1;exitDx=0;exitDy=0;" edge="1" parent="1" source="gnWVeeApLT5yzpqDKX4z-24">
          <mxGeometry relative="1" as="geometry">
            <mxPoint x="395" y="480" as="targetPoint" />
          </mxGeometry>
        </mxCell>
        <mxCell id="gnWVeeApLT5yzpqDKX4z-24" value="Is y greater than x?" style="rhombus;whiteSpace=wrap;html=1;fillColor=#fff2cc;strokeColor=#d6b656;" vertex="1" parent="1">
          <mxGeometry x="315" y="368" width="160" height="80" as="geometry" />
        </mxCell>
        <mxCell id="gnWVeeApLT5yzpqDKX4z-26" value="No" style="text;html=1;align=center;verticalAlign=middle;resizable=0;points=[];autosize=1;strokeColor=none;fillColor=none;" vertex="1" parent="1">
          <mxGeometry x="390" y="448" width="40" height="30" as="geometry" />
        </mxCell>
        <mxCell id="gnWVeeApLT5yzpqDKX4z-27" value="&lt;font style=&quot;font-size: 9px;&quot;&gt;The order of numbers&lt;/font&gt;&lt;div style=&quot;font-size: 9px;&quot;&gt;is:&lt;/div&gt;&lt;div style=&quot;font-size: 9px;&quot;&gt;x &amp;gt; y &amp;gt; z&lt;/div&gt;&lt;div style=&quot;font-size: 9px;&quot;&gt;X is the greatest number.&lt;/div&gt;" style="shape=parallelogram;perimeter=parallelogramPerimeter;whiteSpace=wrap;html=1;fixedSize=1;fillColor=#f8cecc;strokeColor=#b85450;" vertex="1" parent="1">
          <mxGeometry x="323.75" y="478" width="142.5" height="62" as="geometry" />
        </mxCell>
      </root>
    </mxGraphModel>
  </diagram>
</mxfile>
